<svg id="Layer_1" data-name="Layer 1" xmlns="http://www.w3.org/2000/svg" xmlns:xlink="http://www.w3.org/1999/xlink" viewBox="0 0 115.18 36.05"><defs><style>.cls-1{font-size:14.42px;font-family:CenturyGothic-Bold, Century Gothic;font-weight:700;}.cls-2{fill:#747efd;}.cls-3{font-size:6.51px;font-family:CenturyGothic, Century Gothic;}.cls-4{fill:#feffff;}.cls-5{fill:url(#linear-gradient);}</style><linearGradient id="linear-gradient" x1="6.91" y1="40.54" x2="31.24" y2="-6.03" gradientUnits="userSpaceOnUse"><stop offset="0" stop-color="#959fec"/><stop offset="0.03" stop-color="#939ded"/><stop offset="0.46" stop-color="#7c86f9"/><stop offset="0.73" stop-color="#747efd"/></linearGradient></defs><title>Logo</title><text class="cls-1" transform="translate(48.13 18.49) scale(1.12 1)">rad o<tspan class="cls-2" x="36.91" y="0">me</tspan></text><text class="cls-3" transform="translate(48.13 26.58) scale(1.12 1)">everything is radio</text><path d="M16.05,14.93h0S16.05,15,16.05,14.93Z" transform="translate(-1.93 -2.13)"/><path d="M16.05,14.93Z" transform="translate(-1.93 -2.13)"/><path d="M16.05,14.91h0Z" transform="translate(-1.93 -2.13)"/><path d="M16.05,15.88a1.09,1.09,0,0,1,0,.26l0,0Z" transform="translate(-1.93 -2.13)"/><polygon points="14.12 13.76 14.12 13.76 14.12 13.76 14.12 13.76"/><path class="cls-4" d="M12.57,18.68a3.68,3.68,0,0,0,.58-.05,2.72,2.72,0,0,1,.31-.83,2.41,2.41,0,0,1,.38-.44,1.47,1.47,0,0,1,1-.42,1.84,1.84,0,0,0,1-.51,3.69,3.69,0,0,0,.19-.9,1.57,1.57,0,0,0-1.08-1.22,3.83,3.83,0,0,0-1.17.47,3.61,3.61,0,0,0-.69.53,3.75,3.75,0,0,0-.62.83A1.47,1.47,0,0,0,11,14.64h-.19a1.47,1.47,0,0,0-1.42,1.51v.43A3.45,3.45,0,0,0,12.57,18.68Z" transform="translate(-1.93 -2.13)"/><path class="cls-5" d="M33.92,13.38,25,7.19,19,3.81a15.4,15.4,0,0,0-8.93-1.53c-2,.59-7.71,3.32-8.18,15.13,0,0,0,17.29,5.63,19.8,3,1.41,7,1.42,11.48-.87l6-3.69,8.89-6.78a8.94,8.94,0,0,0,2.86-6.53A7.84,7.84,0,0,0,33.92,13.38Z" transform="translate(-1.93 -2.13)"/><path class="cls-4" d="M22.08,14.22a4.18,4.18,0,0,0-1.62.32,6.76,6.76,0,0,0-1.74,1.13,4.36,4.36,0,0,1-2.91,3.23v5.76a1.42,1.42,0,0,0,1.42,1.43h0a1.42,1.42,0,0,0,1.42-1.43V21.44a12.49,12.49,0,0,1,.13-2.34,3.09,3.09,0,0,1,.87-1.63,2.05,2.05,0,0,1,1.49-.59,1.8,1.8,0,0,1,1.14.35,2,2,0,0,1,.64,1A13.19,13.19,0,0,1,23.13,21v3.64a1.43,1.43,0,1,0,2.85,0V18.44a4.18,4.18,0,0,0-1-3A3.94,3.94,0,0,0,22.08,14.22Z" transform="translate(-1.93 -2.13)"/><path class="cls-4" d="M27.48,10.59a1.86,1.86,0,1,0,1.86,1.86A1.87,1.87,0,0,0,27.48,10.59Z" transform="translate(-1.93 -2.13)"/><path class="cls-4" d="M15.19,14.31a3.83,3.83,0,0,0-1.17.47,3.54,3.54,0,0,0-.68.53,3.78,3.78,0,0,0-.63.83,1.46,1.46,0,0,0-1.42-1.5h-.2a1.46,1.46,0,0,0-1.41,1.51v.43l0,8.49a1.46,1.46,0,0,0,1.42,1.5h.68a1.47,1.47,0,0,0,1.42-1.51V21.74l0-.58a11,11,0,0,1,.24-2.53,3,3,0,0,1,.32-.83,2.08,2.08,0,0,1,.38-.44,1.43,1.43,0,0,1,1-.42,1.78,1.78,0,0,0,.95-.51,3.28,3.28,0,0,0,.2-.9A1.6,1.6,0,0,0,15.19,14.31Z" transform="translate(-1.93 -2.13)"/><path class="cls-2" d="M80.69,11.06a1.14,1.14,0,0,0-.4-.88,1.48,1.48,0,0,0-2,0,1.15,1.15,0,0,0-.4.86,1.16,1.16,0,0,0,.41.9,1.47,1.47,0,0,0,1.94,0A1.14,1.14,0,0,0,80.69,11.06Z" transform="translate(-1.93 -2.13)"/><rect x="76.31" y="10.83" width="2.16" height="7.66"/></svg>